<svg width="18" height="17" viewBox="0 0 18 17" fill="none" xmlns="http://www.w3.org/2000/svg">
<path d="M3.37533 13C1.87955 13 0.666992 11.7874 0.666992 10.2917V3.20833C0.666992 1.71256 1.87955 0.5 3.37533 0.5H14.6253C16.1211 0.5 17.3337 1.71256 17.3337 3.20833V10.2917C17.3337 11.7874 16.1211 13 14.6253 13H9.84406L5.66589 16.1256C5.2052 16.4701 4.55241 16.376 4.20784 15.9153C4.07312 15.7352 4.00033 15.5163 4.00033 15.2916L3.99967 13H3.37533ZM9.42825 11.75H14.6253C15.4307 11.75 16.0837 11.0971 16.0837 10.2917V3.20833C16.0837 2.40292 15.4307 1.75 14.6253 1.75H3.37533C2.56991 1.75 1.91699 2.40292 1.91699 3.20833V10.2917C1.91699 11.0971 2.56991 11.75 3.37533 11.75H5.24931L5.24949 12.3748L5.25021 14.8755L9.42825 11.75Z" fill="var(--Color-SVG, #FDFDFD)"/>
</svg>
