<svg width="15" height="9" viewBox="0 0 15 9" fill="none" xmlns="http://www.w3.org/2000/svg">
<path d="M14.8899 4.14114C14.7757 3.978 12.133 0.095459 7.5 0.095459C2.86705 0.095459 0.224307 3.978 0.110114 4.14114C-0.0367047 4.35321 -0.0367047 4.64685 0.110114 4.87523C0.224307 5.02205 2.86705 8.90459 7.5 8.90459C12.133 8.90459 14.7757 5.02205 14.8899 4.85892C15.0367 4.64685 15.0367 4.35321 14.8899 4.14114ZM7.5 7.59954C4.35155 7.59954 2.19821 5.38094 1.46411 4.50003C2.19821 3.6028 4.33524 1.40052 7.5 1.40052C10.6484 1.40052 12.8018 3.61911 13.5359 4.50003C12.7855 5.39725 10.6484 7.59954 7.5 7.59954ZM7.8752 1.82466C7.15742 1.72678 6.45595 1.90623 5.86868 2.34668C4.67781 3.24391 4.43312 4.94048 5.33034 6.13135C5.7708 6.71862 6.3907 7.07751 7.10848 7.19171C7.23899 7.20802 7.36949 7.22433 7.48369 7.22433C8.07096 7.22433 8.62561 7.02857 9.09869 6.686C10.2896 5.78877 10.5343 4.0922 9.63703 2.90133C9.2292 2.29774 8.59298 1.92254 7.8752 1.82466ZM8.52773 5.88665C8.16884 6.16397 7.71207 6.27817 7.2553 6.21291C6.79853 6.14766 6.3907 5.90296 6.11338 5.54407C5.55873 4.77735 5.70555 3.68437 6.47227 3.1134C6.83116 2.83608 7.28793 2.72189 7.7447 2.78714C8.20147 2.85239 8.6093 3.09709 8.88662 3.45598C9.44127 4.2227 9.29445 5.31569 8.52773 5.88665ZM8.46248 3.52123C8.59299 3.63543 8.65824 3.81487 8.65824 3.978C8.65824 4.14114 8.59299 4.32058 8.46248 4.43477C8.34829 4.54897 8.16884 4.63053 8.00571 4.63053C7.82626 4.63053 7.66313 4.56528 7.54894 4.43477C7.41843 4.30427 7.35318 4.14114 7.35318 3.978C7.35318 3.79856 7.41843 3.63543 7.54894 3.52123C7.66313 3.39073 7.84258 3.32548 8.00571 3.32548C8.18515 3.34179 8.34829 3.40704 8.46248 3.52123Z" fill="var(--Color-SVG, #FDFDFD)"/>
</svg>
