<svg width="22" height="22" viewBox="0 0 22 22" fill="none" xmlns="http://www.w3.org/2000/svg">
<g filter="url(#filter0_d_119_21)">
<path d="M16.1666 5.3335H7.83325C6.45254 5.3335 5.33325 6.45278 5.33325 7.8335V16.1668C5.33325 17.5475 6.45254 18.6668 7.83325 18.6668H16.1666C17.5473 18.6668 18.6666 17.5475 18.6666 16.1668V7.8335C18.6666 6.45278 17.5473 5.3335 16.1666 5.3335Z" stroke="#FDFDFD" stroke-linecap="round" stroke-linejoin="round" shape-rendering="crispEdges"/>
</g>
<g filter="url(#filter1_d_119_21)">
<path d="M5.33325 15.3332L8.91066 11.7558C9.2361 11.4304 9.76374 11.4304 10.0892 11.7558L12.8333 14.4999M12.8333 14.4999L15.1607 12.1724C15.4861 11.847 16.0138 11.847 16.3392 12.1724L18.6666 14.4999M12.8333 14.4999L14.7083 16.3749" stroke="#FDFDFD" stroke-linecap="round" stroke-linejoin="round" shape-rendering="crispEdges"/>
</g>
<defs>
<filter id="filter0_d_119_21" x="0.833252" y="0.833496" width="22.3333" height="22.3335" filterUnits="userSpaceOnUse" color-interpolation-filters="sRGB">
<feFlood flood-opacity="0" result="BackgroundImageFix"/>
<feColorMatrix in="SourceAlpha" type="matrix" values="0 0 0 0 0 0 0 0 0 0 0 0 0 0 0 0 0 0 127 0" result="hardAlpha"/>
<feOffset/>
<feGaussianBlur stdDeviation="2"/>
<feComposite in2="hardAlpha" operator="out"/>
<feColorMatrix type="matrix" values="0 0 0 0 0 0 0 0 0 0 0 0 0 0 0 0 0 0 0.25 0"/>
<feBlend mode="normal" in2="BackgroundImageFix" result="effect1_dropShadow_119_21"/>
<feBlend mode="normal" in="SourceGraphic" in2="effect1_dropShadow_119_21" result="shape"/>
</filter>
<filter id="filter1_d_119_21" x="0.833252" y="7.01172" width="22.3333" height="13.8633" filterUnits="userSpaceOnUse" color-interpolation-filters="sRGB">
<feFlood flood-opacity="0" result="BackgroundImageFix"/>
<feColorMatrix in="SourceAlpha" type="matrix" values="0 0 0 0 0 0 0 0 0 0 0 0 0 0 0 0 0 0 127 0" result="hardAlpha"/>
<feOffset/>
<feGaussianBlur stdDeviation="2"/>
<feComposite in2="hardAlpha" operator="out"/>
<feColorMatrix type="matrix" values="0 0 0 0 0 0 0 0 0 0 0 0 0 0 0 0 0 0 0.25 0"/>
<feBlend mode="normal" in2="BackgroundImageFix" result="effect1_dropShadow_119_21"/>
<feBlend mode="normal" in="SourceGraphic" in2="effect1_dropShadow_119_21" result="shape"/>
</filter>
</defs>
</svg>
