<svg width="120" height="30" viewBox="0 0 120 30" fill="none" xmlns="http://www.w3.org/2000/svg">
<g clip-path="url(#clip0_177_596)">
<path d="M6.01172 1.35938C5.0625 1.72852 4.25977 2.2207 3.45703 3.02344C2.6543 3.82031 2.16211 4.62891 1.79297 5.57227C1.43555 6.48633 1.19531 7.53516 1.125 9.07031C1.05469 10.6055 1.03711 11.0977 1.03711 15.0117C1.03711 18.9258 1.05469 19.418 1.125 20.9531C1.19531 22.4883 1.44141 23.5371 1.79297 24.4512C2.16211 25.4004 2.6543 26.2031 3.45703 27.0059C4.25977 27.8086 5.0625 28.3008 6.01172 28.6699C6.92578 29.0273 7.97461 29.2676 9.50977 29.3379C11.0449 29.4082 11.5371 29.4258 15.4512 29.4258C19.3652 29.4258 19.8574 29.4082 21.3926 29.3379C22.9277 29.2676 23.9766 29.0215 24.8906 28.6699C25.8398 28.3008 26.6426 27.8086 27.4453 27.0059C28.248 26.2031 28.7402 25.4004 29.1094 24.4512C29.4668 23.5371 29.707 22.4883 29.7773 20.9531C29.8477 19.418 29.8652 18.9258 29.8652 15.0117C29.8652 11.0977 29.8477 10.6055 29.7773 9.07031C29.707 7.53516 29.4609 6.48633 29.1094 5.57227C28.7402 4.62891 28.248 3.82031 27.4512 3.02344C26.6484 2.2207 25.8457 1.72852 24.8965 1.35938C23.9824 1.00195 22.9336 0.761719 21.3984 0.691406C19.8633 0.621094 19.3711 0.603516 15.457 0.603516C11.543 0.603516 11.0508 0.621094 9.51562 0.691406C7.97461 0.755859 6.92578 1.00195 6.01172 1.35938ZM21.2754 3.28125C22.6816 3.3457 23.4434 3.58008 23.9531 3.7793C24.627 4.04297 25.1074 4.35352 25.6113 4.85742C26.1152 5.36133 26.4258 5.8418 26.6895 6.51562C26.8887 7.02539 27.123 7.78711 27.1875 9.19336C27.2578 10.7109 27.2695 11.168 27.2695 15.0176C27.2695 18.8672 27.252 19.3242 27.1875 20.8418C27.123 22.248 26.8887 23.0098 26.6895 23.5195C26.4258 24.1934 26.1152 24.6738 25.6113 25.1777C25.1074 25.6816 24.627 25.9922 23.9531 26.2559C23.4434 26.4551 22.6816 26.6895 21.2754 26.7539C19.7578 26.8242 19.3008 26.8359 15.4512 26.8359C11.6016 26.8359 11.1445 26.8184 9.62695 26.7539C8.2207 26.6895 7.45898 26.4551 6.94922 26.2559C6.27539 25.9922 5.79492 25.6816 5.29102 25.1777C4.78711 24.6738 4.47656 24.1934 4.21289 23.5195C4.01367 23.0098 3.7793 22.248 3.71484 20.8418C3.64453 19.3242 3.63281 18.8672 3.63281 15.0176C3.63281 11.168 3.65039 10.7109 3.71484 9.19336C3.7793 7.78711 4.01367 7.02539 4.21289 6.51562C4.47656 5.8418 4.78711 5.36133 5.29102 4.85742C5.79492 4.35352 6.27539 4.04297 6.94922 3.7793C7.45898 3.58008 8.2207 3.3457 9.62695 3.28125C11.1445 3.21094 11.6016 3.19922 15.4512 3.19922C19.3008 3.19922 19.7578 3.21094 21.2754 3.28125Z" fill="url(#paint0_radial_177_596)"/>
<path d="M8.05078 15.0176C8.05078 19.1074 11.3672 22.418 15.4512 22.418C19.5352 22.418 22.8516 19.1016 22.8516 15.0176C22.8516 10.9336 19.541 7.61719 15.4512 7.61719C11.3613 7.61719 8.05078 10.9277 8.05078 15.0176ZM20.2559 15.0176C20.2559 17.6719 18.1055 19.8223 15.4512 19.8223C12.7969 19.8223 10.6465 17.6719 10.6465 15.0176C10.6465 12.3633 12.7969 10.2129 15.4512 10.2129C18.1055 10.2129 20.2559 12.3633 20.2559 15.0176Z" fill="url(#paint1_radial_177_596)"/>
<path d="M23.1504 9.05273C24.105 9.05273 24.8789 8.27885 24.8789 7.32422C24.8789 6.36959 24.105 5.5957 23.1504 5.5957C22.1958 5.5957 21.4219 6.36959 21.4219 7.32422C21.4219 8.27885 22.1958 9.05273 23.1504 9.05273Z" fill="#654C9F"/>
<path d="M41.8791 4.91079C40.2526 5.58933 38.4645 7.50629 37.8997 9.91249C37.1845 12.9612 40.1608 14.2505 40.4049 13.8277C40.6923 13.331 39.8716 13.1631 39.7027 11.5812C39.4844 9.53817 40.4374 7.25527 41.6369 6.2536C41.8598 6.0675 41.8492 6.32652 41.8492 6.80563C41.8492 7.66239 41.8017 15.3536 41.8017 16.9587C41.8017 19.1307 41.7117 19.8166 41.55 20.4943C41.3862 21.1811 41.1229 21.6452 41.3224 21.824C41.5454 22.0239 42.4973 21.5483 43.0483 20.7818C43.7092 19.8625 43.9405 18.7584 43.982 17.5595C44.0322 16.1141 44.03 13.8207 44.0322 12.5126C44.0342 11.3128 44.0524 7.79961 44.0111 5.68761C44.0009 5.16958 42.5594 4.62672 41.8791 4.91079ZM99.6375 15.0755C99.5851 16.2047 99.3343 17.0872 99.023 17.7098C98.4204 18.915 97.17 19.2892 96.6391 17.5567C96.3498 16.6123 96.3363 15.0351 96.5443 13.7172C96.7561 12.3746 97.3473 11.3607 98.3263 11.4521C99.2919 11.5425 99.7439 12.7826 99.6375 15.0755ZM83.3588 22.0811C83.3457 23.9573 83.0494 25.6023 82.4141 26.08C81.5129 26.7575 80.3017 26.2493 80.5525 24.8803C80.7744 23.6688 81.8239 22.4315 83.3614 20.9198C83.3614 20.9198 83.3645 21.2646 83.3588 22.0811ZM83.1127 15.0646C83.0576 16.093 82.7901 17.1262 82.4982 17.7099C81.8957 18.9151 80.6363 19.2919 80.1143 17.5568C79.7574 16.3714 79.8429 14.8371 80.0195 13.8703C80.2486 12.616 80.804 11.4524 81.8014 11.4524C82.7712 11.4524 83.2494 12.5127 83.1127 15.0646ZM73.6824 15.0488C73.6233 16.1381 73.4101 17.0486 73.0679 17.7099C72.4489 18.9068 71.2242 19.2864 70.684 17.5568C70.2946 16.3097 70.4272 14.6091 70.5892 13.6905C70.8296 12.3273 71.4315 11.3608 72.3712 11.4524C73.3364 11.5464 73.8056 12.7826 73.6824 15.0488ZM116.899 16.3211C116.663 16.3211 116.556 16.5635 116.467 16.9715C116.158 18.3902 115.833 18.7105 115.414 18.7105C114.946 18.7105 114.526 18.008 114.418 16.6018C114.333 15.4961 114.346 13.4604 114.455 11.4355C114.477 11.0194 114.362 10.6078 113.242 10.2024C112.76 10.028 112.06 9.77128 111.711 10.6102C110.726 12.9803 110.341 14.8619 110.25 15.6263C110.245 15.6658 110.197 15.6739 110.188 15.5815C110.13 14.9693 110.001 13.8568 109.985 11.5193C109.982 11.0633 109.885 10.6751 109.38 10.3573C109.052 10.1511 108.057 9.78635 107.699 10.2203C107.388 10.5751 107.029 11.5301 106.655 12.6622C106.351 13.5823 106.14 14.2047 106.14 14.2047C106.14 14.2047 106.144 11.7221 106.147 10.7804C106.149 10.4252 105.905 10.3068 105.831 10.2853C105.499 10.1893 104.845 10.029 104.568 10.029C104.225 10.029 104.141 10.2197 104.141 10.4977C104.141 10.5341 104.087 13.7662 104.087 16.0263C104.087 16.1245 104.087 16.2316 104.088 16.3454C103.899 17.3842 103.285 18.7943 102.617 18.7943C101.948 18.7943 101.632 18.2047 101.632 15.5104C101.632 13.9385 101.68 13.2551 101.703 12.1182C101.716 11.4634 101.742 10.9606 101.741 10.8465C101.736 10.4965 101.129 10.3202 100.846 10.255C100.563 10.1892 100.316 10.1638 100.123 10.1747C99.8507 10.19 99.6578 10.3683 99.6578 10.6134C99.6578 10.7449 99.6593 10.9948 99.6593 10.9948C99.3082 10.4449 98.7435 10.0622 98.3677 9.9513C97.3557 9.65176 96.2996 9.91717 95.5031 11.028C94.87 11.9107 94.4884 12.9103 94.3382 14.3466C94.2284 15.3966 94.2642 16.4614 94.4594 17.3619C94.2235 18.378 93.7857 18.7943 93.3063 18.7943C92.6104 18.7943 92.1058 17.6621 92.1644 15.7042C92.2031 14.4164 92.4616 13.5126 92.7443 12.2051C92.8648 11.6478 92.7669 11.356 92.5213 11.0763C92.296 10.8198 91.8161 10.6888 91.1262 10.8499C90.6347 10.9648 89.9321 11.0884 89.2892 11.1833C89.2892 11.1833 89.328 11.0291 89.3599 10.7571C89.5271 9.33102 87.9721 9.44673 87.476 9.90224C87.1798 10.1742 86.9782 10.4949 86.9017 11.0716C86.7804 11.9868 87.5293 12.4184 87.5293 12.4184C87.2836 13.5394 86.6813 15.0038 86.0594 16.0625C85.7264 16.6298 85.4716 17.0501 85.1426 17.4969C85.1414 17.3305 85.1405 17.1642 85.1399 16.9986C85.1324 14.6418 85.1639 12.787 85.1778 12.1184C85.1913 11.4636 85.2176 10.9741 85.2162 10.86C85.2125 10.6041 85.0625 10.5074 84.7505 10.385C84.4747 10.2768 84.1486 10.2019 83.8103 10.1757C83.3834 10.1426 83.1262 10.3682 83.1328 10.6351C83.1341 10.6855 83.1341 10.9949 83.1341 10.9949C82.783 10.445 82.2183 10.0623 81.8425 9.95139C80.8305 9.65198 79.7745 9.9174 78.9779 11.0281C78.345 11.9107 77.9304 13.1493 77.813 14.3357C77.7036 15.4415 77.7238 16.3812 77.8729 17.1728C77.712 17.9655 77.2493 18.7944 76.7262 18.7944C76.0574 18.7944 75.6768 18.2048 75.6768 15.5105C75.6768 13.9386 75.7242 13.2552 75.7474 12.1184C75.761 11.4636 75.787 10.9607 75.7856 10.8467C75.7807 10.4968 75.1735 10.3204 74.891 10.2551C74.5954 10.1869 74.3401 10.1619 74.1442 10.1763C73.8856 10.1955 73.7038 10.4262 73.7038 10.5983V10.9949C73.3527 10.445 72.788 10.0623 72.4122 9.95139C71.4002 9.65198 70.3501 9.92167 69.5476 11.0281C69.0244 11.7496 68.6007 12.5494 68.3827 14.32C68.3197 14.8317 68.2919 15.3108 68.2955 15.7587C68.0868 17.0305 67.1652 18.4963 66.4113 18.4963C65.9702 18.4963 65.55 17.6435 65.55 15.8261C65.55 13.4053 65.7004 9.95846 65.7258 9.62626C65.7258 9.62626 66.6783 9.61013 66.8628 9.60799C67.3379 9.60279 67.7682 9.61399 68.401 9.58173C68.7184 9.5656 69.0242 8.43035 68.6966 8.28985C68.5482 8.22626 67.4988 8.17054 67.0828 8.16174C66.733 8.15384 65.7592 8.08202 65.7592 8.08202C65.7592 8.08202 65.8466 5.79419 65.8669 5.55251C65.8842 5.35108 65.6227 5.24737 65.4727 5.18444C65.1081 5.03074 64.7819 4.95715 64.3952 4.8777C63.8609 4.76786 63.6185 4.8753 63.5712 5.32468C63.4999 6.00669 63.463 8.0043 63.463 8.0043C63.0709 8.0043 61.7317 7.92792 61.3395 7.92792C60.9751 7.92792 60.5819 9.48962 61.0856 9.50881C61.6652 9.53121 62.6752 9.55054 63.3448 9.57067C63.3448 9.57067 63.315 13.0743 63.315 14.1559C63.315 14.271 63.316 14.3818 63.3162 14.4893C62.9477 16.4036 61.6497 17.4377 61.6497 17.4377C61.9285 16.1713 61.359 15.2203 60.3334 14.4152C59.9555 14.1186 59.2095 13.5569 58.3748 12.9415C58.3748 12.9415 58.8582 12.4667 59.2869 11.5114C59.5907 10.8347 59.6038 10.0603 58.8582 9.88957C57.6263 9.60722 56.6105 10.5089 56.3075 11.4715C56.0728 12.2172 56.198 12.7706 56.6579 13.3454C56.6914 13.3874 56.7278 13.4303 56.7654 13.4735C56.4873 14.0077 56.1053 14.7269 55.7817 15.2847C54.8837 16.8332 54.2052 18.058 53.6925 18.058C53.2827 18.058 53.2882 16.8145 53.2882 15.6502C53.2882 14.6465 53.3625 13.1375 53.4219 11.5751C53.4416 11.0584 53.1824 10.7641 52.7478 10.4974C52.4837 10.3355 51.9202 10.017 51.5938 10.017C51.1053 10.017 49.6959 10.0833 48.3642 13.9224C48.1963 14.4063 47.8666 15.288 47.8666 15.288L47.895 10.6713C47.895 10.563 47.8371 10.4584 47.7047 10.3868C47.4803 10.2654 46.8809 10.017 46.348 10.017C46.094 10.017 45.9673 10.1347 45.9673 10.3693L45.9208 17.5922C45.9208 18.141 45.9352 18.7812 45.9896 19.0613C46.0439 19.3416 46.1317 19.5697 46.2406 19.7054C46.3493 19.8409 46.475 19.9442 46.6823 19.9868C46.8752 20.0264 47.9315 20.1616 47.9864 19.7593C48.0522 19.2771 48.0547 18.7556 48.6094 16.8106C49.4729 13.7825 50.5988 12.3051 51.1281 11.7804C51.2207 11.6887 51.3263 11.6832 51.3213 11.8333C51.2987 12.4972 51.2192 14.1561 51.1657 15.5654C51.0223 19.3369 51.7108 20.036 52.6946 20.036C53.4473 20.036 54.5083 19.2907 55.6456 17.404C56.3547 16.2282 57.0432 15.0754 57.5378 14.2445C57.8825 14.5625 58.2694 14.9048 58.6559 15.2704C59.5543 16.1201 59.8492 16.9276 59.6535 17.6935C59.5038 18.2791 58.9402 18.8826 57.937 18.296C57.6446 18.1249 57.5198 17.9927 57.2257 17.7998C57.0678 17.6961 56.8266 17.6652 56.682 17.7737C56.3064 18.056 56.0916 18.415 55.9689 18.8594C55.8496 19.2919 56.2842 19.5205 56.7347 19.7204C57.1226 19.8925 57.9564 20.0485 58.4881 20.0663C60.5597 20.1353 62.2193 19.0694 63.3746 16.3198C63.5814 18.6944 64.4616 20.0381 65.9907 20.0381C67.0131 20.0381 68.0381 18.7211 68.4863 17.4256C68.615 17.9537 68.8054 18.4129 69.0514 18.8013C70.2297 20.6619 72.5156 20.2614 73.6638 18.6815C74.0188 18.1933 74.0728 18.0179 74.0728 18.0179C74.2403 19.5097 75.4458 20.0309 76.136 20.0309C76.909 20.0309 77.7071 19.6667 78.2665 18.4117C78.3321 18.5479 78.4036 18.6779 78.4817 18.8013C79.66 20.6618 81.9459 20.2614 83.0941 18.6814C83.1482 18.6073 83.1952 18.5401 83.2363 18.4798L83.27 19.4597C83.27 19.4597 82.6149 20.0585 82.2129 20.4259C80.4432 22.044 79.0976 23.2716 78.9986 24.7012C78.8715 26.5241 80.3549 27.2015 81.4772 27.2903C82.669 27.3846 83.6896 26.7284 84.3169 25.8102C84.8687 25.002 85.2298 23.2624 85.2034 21.5443C85.1928 20.8564 85.1754 19.9816 85.1618 19.0439C85.7837 18.324 86.4845 17.4142 87.1298 16.3492C87.833 15.1886 88.5866 13.63 88.9725 12.417C88.9725 12.417 89.6272 12.4226 90.326 12.377C90.5495 12.3625 90.6137 12.408 90.5724 12.5713C90.5225 12.7686 89.6896 15.9704 90.4497 18.1033C90.9701 19.5634 92.143 20.0332 92.8384 20.0332C93.6525 20.0332 94.4313 19.4205 94.8486 18.5107C94.8989 18.6121 94.9515 18.7102 95.0088 18.8009C96.1871 20.6614 98.465 20.2586 99.6212 18.681C99.8821 18.3251 100.03 18.0174 100.03 18.0174C100.278 19.5614 101.483 20.0384 102.173 20.0384C102.892 20.0384 103.574 19.7447 104.128 18.4395C104.151 19.0142 104.187 19.4841 104.245 19.6322C104.28 19.7228 104.484 19.8366 104.633 19.8915C105.29 20.1345 105.961 20.0196 106.209 19.9696C106.381 19.9349 106.515 19.7975 106.533 19.4426C106.581 18.5108 106.552 16.9452 106.835 15.7817C107.311 13.829 107.755 13.0716 107.965 12.6966C108.083 12.4865 108.216 12.4518 108.221 12.6742C108.231 13.1241 108.253 14.4453 108.438 16.2204C108.573 17.526 108.754 18.2976 108.893 18.5419C109.29 19.2403 109.779 19.2733 110.178 19.2733C110.432 19.2733 110.963 19.2034 110.915 18.759C110.892 18.5424 110.933 17.2036 111.402 15.2798C111.708 14.0235 112.219 12.8884 112.403 12.4734C112.471 12.3204 112.502 12.441 112.501 12.4645C112.463 13.3297 112.375 16.1595 112.729 17.7072C113.209 19.8039 114.595 20.0385 115.079 20.0385C116.11 20.0385 116.954 19.2564 117.238 17.1984C117.307 16.7031 117.205 16.3207 116.902 16.3207" fill="#212121"/>
</g>
<defs>
<radialGradient id="paint0_radial_177_596" cx="0" cy="0" r="1" gradientUnits="userSpaceOnUse" gradientTransform="translate(1.56164 26.787) rotate(-3.00009) scale(41.6786 35.4264)">
<stop stop-color="#FED576"/>
<stop offset="0.2634" stop-color="#F47133"/>
<stop offset="0.6091" stop-color="#BC3081"/>
<stop offset="1" stop-color="#4C63D2"/>
</radialGradient>
<radialGradient id="paint1_radial_177_596" cx="0" cy="0" r="1" gradientUnits="userSpaceOnUse" gradientTransform="translate(8.31922 21.0608) rotate(-3.00009) scale(21.4025 18.1919)">
<stop stop-color="#FED576"/>
<stop offset="0.2634" stop-color="#F47133"/>
<stop offset="0.6091" stop-color="#BC3081"/>
<stop offset="1" stop-color="#4C63D2"/>
</radialGradient>
<clipPath id="clip0_177_596">
<rect width="119.286" height="30" fill="white" transform="translate(0.380859)"/>
</clipPath>
</defs>
</svg>
