<svg width="31" height="30" viewBox="0 0 31 30" fill="none" xmlns="http://www.w3.org/2000/svg">
<path d="M6.01172 1.35938C5.0625 1.72852 4.25977 2.2207 3.45703 3.02344C2.6543 3.82031 2.16211 4.62891 1.79297 5.57227C1.43555 6.48633 1.19531 7.53516 1.125 9.07031C1.05469 10.6055 1.03711 11.0977 1.03711 15.0117C1.03711 18.9258 1.05469 19.418 1.125 20.9531C1.19531 22.4883 1.44141 23.5371 1.79297 24.4512C2.16211 25.4004 2.6543 26.2031 3.45703 27.0059C4.25977 27.8086 5.0625 28.3008 6.01172 28.6699C6.92578 29.0273 7.97461 29.2676 9.50977 29.3379C11.0449 29.4082 11.5371 29.4258 15.4512 29.4258C19.3652 29.4258 19.8574 29.4082 21.3926 29.3379C22.9277 29.2676 23.9766 29.0215 24.8906 28.6699C25.8398 28.3008 26.6426 27.8086 27.4453 27.0059C28.248 26.2031 28.7402 25.4004 29.1094 24.4512C29.4668 23.5371 29.707 22.4883 29.7773 20.9531C29.8477 19.418 29.8652 18.9258 29.8652 15.0117C29.8652 11.0977 29.8477 10.6055 29.7773 9.07031C29.707 7.53516 29.4609 6.48633 29.1094 5.57227C28.7402 4.62891 28.248 3.82031 27.4512 3.02344C26.6484 2.2207 25.8457 1.72852 24.8965 1.35938C23.9824 1.00195 22.9336 0.761719 21.3984 0.691406C19.8633 0.621094 19.3711 0.603516 15.457 0.603516C11.543 0.603516 11.0508 0.621094 9.51562 0.691406C7.97461 0.755859 6.92578 1.00195 6.01172 1.35938ZM21.2754 3.28125C22.6816 3.3457 23.4434 3.58008 23.9531 3.7793C24.627 4.04297 25.1074 4.35352 25.6113 4.85742C26.1152 5.36133 26.4258 5.8418 26.6895 6.51562C26.8887 7.02539 27.123 7.78711 27.1875 9.19336C27.2578 10.7109 27.2695 11.168 27.2695 15.0176C27.2695 18.8672 27.252 19.3242 27.1875 20.8418C27.123 22.248 26.8887 23.0098 26.6895 23.5195C26.4258 24.1934 26.1152 24.6738 25.6113 25.1777C25.1074 25.6816 24.627 25.9922 23.9531 26.2559C23.4434 26.4551 22.6816 26.6895 21.2754 26.7539C19.7578 26.8242 19.3008 26.8359 15.4512 26.8359C11.6016 26.8359 11.1445 26.8184 9.62695 26.7539C8.2207 26.6895 7.45898 26.4551 6.94922 26.2559C6.27539 25.9922 5.79492 25.6816 5.29102 25.1777C4.78711 24.6738 4.47656 24.1934 4.21289 23.5195C4.01367 23.0098 3.7793 22.248 3.71484 20.8418C3.64453 19.3242 3.63281 18.8672 3.63281 15.0176C3.63281 11.168 3.65039 10.7109 3.71484 9.19336C3.7793 7.78711 4.01367 7.02539 4.21289 6.51562C4.47656 5.8418 4.78711 5.36133 5.29102 4.85742C5.79492 4.35352 6.27539 4.04297 6.94922 3.7793C7.45898 3.58008 8.2207 3.3457 9.62695 3.28125C11.1445 3.21094 11.6016 3.19922 15.4512 3.19922C19.3008 3.19922 19.7578 3.21094 21.2754 3.28125Z" fill="url(#paint0_radial_177_597)"/>
<path d="M8.05078 15.0176C8.05078 19.1074 11.3672 22.418 15.4512 22.418C19.5352 22.418 22.8516 19.1016 22.8516 15.0176C22.8516 10.9336 19.541 7.61719 15.4512 7.61719C11.3613 7.61719 8.05078 10.9277 8.05078 15.0176ZM20.2559 15.0176C20.2559 17.6719 18.1055 19.8223 15.4512 19.8223C12.7969 19.8223 10.6465 17.6719 10.6465 15.0176C10.6465 12.3633 12.7969 10.2129 15.4512 10.2129C18.1055 10.2129 20.2559 12.3633 20.2559 15.0176Z" fill="url(#paint1_radial_177_597)"/>
<path d="M23.1504 9.05273C24.105 9.05273 24.8789 8.27885 24.8789 7.32422C24.8789 6.36959 24.105 5.5957 23.1504 5.5957C22.1958 5.5957 21.4219 6.36959 21.4219 7.32422C21.4219 8.27885 22.1958 9.05273 23.1504 9.05273Z" fill="#654C9F"/>
<defs>
<radialGradient id="paint0_radial_177_597" cx="0" cy="0" r="1" gradientUnits="userSpaceOnUse" gradientTransform="translate(1.56164 26.787) rotate(-3.00009) scale(41.6786 35.4264)">
<stop stop-color="#FED576"/>
<stop offset="0.2634" stop-color="#F47133"/>
<stop offset="0.6091" stop-color="#BC3081"/>
<stop offset="1" stop-color="#4C63D2"/>
</radialGradient>
<radialGradient id="paint1_radial_177_597" cx="0" cy="0" r="1" gradientUnits="userSpaceOnUse" gradientTransform="translate(8.31922 21.0608) rotate(-3.00009) scale(21.4025 18.1919)">
<stop stop-color="#FED576"/>
<stop offset="0.2634" stop-color="#F47133"/>
<stop offset="0.6091" stop-color="#BC3081"/>
<stop offset="1" stop-color="#4C63D2"/>
</radialGradient>
</defs>
</svg>
