<svg width="85" height="30" viewBox="0 0 85 30" fill="none" xmlns="http://www.w3.org/2000/svg">
<path d="M6.87912 4.91079C5.25258 5.58933 3.46446 7.50629 2.89972 9.91249C2.18452 12.9612 5.16082 14.2505 5.40493 13.8277C5.69226 13.331 4.87161 13.1631 4.70269 11.5812C4.48437 9.53817 5.43742 7.25527 6.63687 6.2536C6.85982 6.0675 6.84922 6.32652 6.84922 6.80563C6.84922 7.66239 6.80172 15.3536 6.80172 16.9587C6.80172 19.1307 6.7117 19.8166 6.55003 20.4943C6.38623 21.1811 6.12289 21.6452 6.32243 21.824C6.54538 22.0239 7.49727 21.5483 8.04834 20.7818C8.70915 19.8625 8.94047 18.7584 8.982 17.5595C9.03216 16.1141 9.03002 13.8207 9.03216 12.5126C9.03416 11.3128 9.05244 7.79961 9.01106 5.68761C9.00091 5.16958 7.55943 4.62672 6.87912 4.91079ZM64.6375 15.0755C64.5851 16.2047 64.3343 17.0872 64.023 17.7098C63.4204 18.915 62.17 19.2892 61.6391 17.5567C61.3498 16.6123 61.3363 15.0351 61.5443 13.7172C61.7561 12.3746 62.3473 11.3607 63.3263 11.4521C64.2919 11.5425 64.7439 12.7826 64.6375 15.0755ZM48.3588 22.0811C48.3457 23.9573 48.0494 25.6023 47.4141 26.08C46.5129 26.7575 45.3017 26.2493 45.5525 24.8803C45.7744 23.6688 46.8239 22.4315 48.3614 20.9198C48.3614 20.9198 48.3645 21.2646 48.3588 22.0811ZM48.1127 15.0646C48.0576 16.093 47.7901 17.1262 47.4982 17.7099C46.8957 18.9151 45.6363 19.2919 45.1143 17.5568C44.7574 16.3714 44.8429 14.8371 45.0195 13.8703C45.2486 12.616 45.804 11.4524 46.8014 11.4524C47.7712 11.4524 48.2494 12.5127 48.1127 15.0646ZM38.6824 15.0488C38.6233 16.1381 38.4101 17.0486 38.0679 17.7099C37.4489 18.9068 36.2242 19.2864 35.684 17.5568C35.2946 16.3097 35.4272 14.6091 35.5892 13.6905C35.8296 12.3273 36.4315 11.3608 37.3712 11.4524C38.3364 11.5464 38.8056 12.7826 38.6824 15.0488ZM81.8993 16.3211C81.6633 16.3211 81.5556 16.5635 81.4666 16.9715C81.1576 18.3902 80.8328 18.7105 80.414 18.7105C79.9461 18.7105 79.5257 18.008 79.4176 16.6018C79.3327 15.4961 79.3463 13.4604 79.4549 11.4355C79.4771 11.0194 79.362 10.6078 78.2422 10.2024C77.7604 10.028 77.0601 9.77128 76.7113 10.6102C75.7261 12.9803 75.3406 14.8619 75.2499 15.6263C75.2452 15.6658 75.1965 15.6739 75.188 15.5815C75.1302 14.9693 75.001 13.8568 74.9849 11.5193C74.9818 11.0633 74.8849 10.6751 74.3798 10.3573C74.052 10.1511 73.0569 9.78635 72.6985 10.2203C72.3881 10.5751 72.0285 11.5301 71.6549 12.6622C71.3513 13.5823 71.1398 14.2047 71.1398 14.2047C71.1398 14.2047 71.1438 11.7221 71.1474 10.7804C71.149 10.4252 70.9045 10.3068 70.8308 10.2853C70.499 10.1893 69.8451 10.029 69.5676 10.029C69.2251 10.029 69.1413 10.2197 69.1413 10.4977C69.1413 10.5341 69.0872 13.7662 69.0872 16.0263C69.0872 16.1245 69.0872 16.2316 69.0882 16.3454C68.8988 17.3842 68.2846 18.7943 67.6166 18.7943C66.9478 18.7943 66.6323 18.2047 66.6323 15.5104C66.6323 13.9385 66.6796 13.2551 66.7029 12.1182C66.7164 11.4634 66.7425 10.9606 66.741 10.8465C66.7361 10.4965 66.1289 10.3202 65.8464 10.255C65.5626 10.1892 65.3159 10.1638 65.1233 10.1747C64.8507 10.19 64.6578 10.3683 64.6578 10.6134C64.6578 10.7449 64.6593 10.9948 64.6593 10.9948C64.3082 10.4449 63.7435 10.0622 63.3677 9.9513C62.3557 9.65176 61.2996 9.91717 60.5031 11.028C59.87 11.9107 59.4884 12.9103 59.3382 14.3466C59.2284 15.3966 59.2642 16.4614 59.4594 17.3619C59.2235 18.378 58.7857 18.7943 58.3063 18.7943C57.6104 18.7943 57.1058 17.6621 57.1644 15.7042C57.2031 14.4164 57.4616 13.5126 57.7443 12.2051C57.8648 11.6478 57.7669 11.356 57.5213 11.0763C57.296 10.8198 56.8161 10.6888 56.1262 10.8499C55.6347 10.9648 54.9321 11.0884 54.2892 11.1833C54.2892 11.1833 54.328 11.0291 54.3599 10.7571C54.5271 9.33102 52.9721 9.44673 52.476 9.90224C52.1798 10.1742 51.9782 10.4949 51.9017 11.0716C51.7804 11.9868 52.5293 12.4184 52.5293 12.4184C52.2836 13.5394 51.6813 15.0038 51.0594 16.0625C50.7264 16.6298 50.4716 17.0501 50.1426 17.4969C50.1414 17.3305 50.1405 17.1642 50.1399 16.9986C50.1324 14.6418 50.1639 12.787 50.1778 12.1184C50.1913 11.4636 50.2176 10.9741 50.2162 10.86C50.2125 10.6041 50.0625 10.5074 49.7505 10.385C49.4747 10.2768 49.1486 10.2019 48.8103 10.1757C48.3834 10.1426 48.1262 10.3682 48.1328 10.6351C48.1341 10.6855 48.1341 10.9949 48.1341 10.9949C47.783 10.445 47.2183 10.0623 46.8425 9.95139C45.8305 9.65198 44.7745 9.9174 43.9779 11.0281C43.345 11.9107 42.9304 13.1493 42.813 14.3357C42.7036 15.4415 42.7238 16.3812 42.8729 17.1728C42.712 17.9655 42.2493 18.7944 41.7262 18.7944C41.0574 18.7944 40.6768 18.2048 40.6768 15.5105C40.6768 13.9386 40.7242 13.2552 40.7474 12.1184C40.761 11.4636 40.787 10.9607 40.7856 10.8467C40.7807 10.4968 40.1735 10.3204 39.891 10.2551C39.5954 10.1869 39.3401 10.1619 39.1442 10.1763C38.8856 10.1955 38.7038 10.4262 38.7038 10.5983V10.9949C38.3527 10.445 37.788 10.0623 37.4122 9.95139C36.4002 9.65198 35.3501 9.92167 34.5476 11.0281C34.0244 11.7496 33.6007 12.5494 33.3827 14.32C33.3197 14.8317 33.2919 15.3108 33.2955 15.7587C33.0868 17.0305 32.1652 18.4963 31.4113 18.4963C30.9702 18.4963 30.55 17.6435 30.55 15.8261C30.55 13.4053 30.7004 9.95846 30.7258 9.62626C30.7258 9.62626 31.6783 9.61013 31.8628 9.60799C32.3379 9.60279 32.7682 9.61399 33.401 9.58173C33.7184 9.5656 34.0242 8.43035 33.6966 8.28985C33.5482 8.22626 32.4988 8.17054 32.0828 8.16174C31.733 8.15384 30.7592 8.08202 30.7592 8.08202C30.7592 8.08202 30.8466 5.79419 30.8669 5.55251C30.8842 5.35108 30.6227 5.24737 30.4727 5.18444C30.1081 5.03074 29.7819 4.95715 29.3952 4.8777C28.8609 4.76786 28.6185 4.8753 28.5712 5.32468C28.4999 6.00669 28.463 8.0043 28.463 8.0043C28.0709 8.0043 26.7317 7.92792 26.3395 7.92792C25.9751 7.92792 25.5819 9.48962 26.0856 9.50881C26.6652 9.53121 27.6752 9.55054 28.3448 9.57067C28.3448 9.57067 28.315 13.0743 28.315 14.1559C28.315 14.271 28.316 14.3818 28.3162 14.4893C27.9477 16.4036 26.6497 17.4377 26.6497 17.4377C26.9285 16.1713 26.359 15.2203 25.3334 14.4152C24.9555 14.1186 24.2095 13.5569 23.3748 12.9415C23.3748 12.9415 23.8582 12.4667 24.2869 11.5114C24.5907 10.8347 24.6038 10.0603 23.8582 9.88957C22.6263 9.60722 21.6105 10.5089 21.3075 11.4715C21.0728 12.2172 21.198 12.7706 21.6579 13.3454C21.6914 13.3874 21.7278 13.4303 21.7654 13.4735C21.4873 14.0077 21.1053 14.7269 20.7817 15.2847C19.8837 16.8332 19.2052 18.058 18.6925 18.058C18.2827 18.058 18.2882 16.8145 18.2882 15.6502C18.2882 14.6465 18.3625 13.1375 18.4219 11.5751C18.4416 11.0584 18.1824 10.7641 17.7478 10.4974C17.4837 10.3355 16.9202 10.017 16.5938 10.017C16.1053 10.017 14.6959 10.0833 13.3642 13.9224C13.1963 14.4063 12.8666 15.288 12.8666 15.288L12.895 10.6713C12.895 10.563 12.8371 10.4584 12.7047 10.3868C12.4803 10.2654 11.8809 10.017 11.348 10.017C11.094 10.017 10.9673 10.1347 10.9673 10.3693L10.9208 17.5922C10.9208 18.141 10.9352 18.7812 10.9896 19.0613C11.0439 19.3416 11.1317 19.5697 11.2406 19.7054C11.3493 19.8409 11.475 19.9442 11.6823 19.9868C11.8752 20.0264 12.9315 20.1616 12.9864 19.7593C13.0522 19.2771 13.0547 18.7556 13.6094 16.8106C14.4729 13.7825 15.5988 12.3051 16.1281 11.7804C16.2207 11.6887 16.3263 11.6832 16.3213 11.8333C16.2987 12.4972 16.2192 14.1561 16.1657 15.5654C16.0223 19.3369 16.7108 20.036 17.6946 20.036C18.4473 20.036 19.5083 19.2907 20.6456 17.404C21.3547 16.2282 22.0432 15.0754 22.5378 14.2445C22.8825 14.5625 23.2694 14.9048 23.6559 15.2704C24.5543 16.1201 24.8492 16.9276 24.6535 17.6935C24.5038 18.2791 23.9402 18.8826 22.937 18.296C22.6446 18.1249 22.5198 17.9927 22.2257 17.7998C22.0678 17.6961 21.8266 17.6652 21.682 17.7737C21.3064 18.056 21.0916 18.415 20.9689 18.8594C20.8496 19.2919 21.2842 19.5205 21.7347 19.7204C22.1226 19.8925 22.9564 20.0485 23.4881 20.0663C25.5597 20.1353 27.2193 19.0694 28.3746 16.3198C28.5814 18.6944 29.4616 20.0381 30.9907 20.0381C32.0131 20.0381 33.0381 18.7211 33.4863 17.4256C33.615 17.9537 33.8054 18.4129 34.0514 18.8013C35.2297 20.6619 37.5156 20.2614 38.6638 18.6815C39.0188 18.1933 39.0728 18.0179 39.0728 18.0179C39.2403 19.5097 40.4458 20.0309 41.136 20.0309C41.909 20.0309 42.7071 19.6667 43.2665 18.4117C43.3321 18.5479 43.4036 18.6779 43.4817 18.8013C44.66 20.6618 46.9459 20.2614 48.0941 18.6814C48.1482 18.6073 48.1952 18.5401 48.2363 18.4798L48.27 19.4597C48.27 19.4597 47.6149 20.0585 47.2129 20.4259C45.4432 22.044 44.0976 23.2716 43.9986 24.7012C43.8715 26.5241 45.3549 27.2015 46.4772 27.2903C47.669 27.3846 48.6896 26.7284 49.3169 25.8102C49.8687 25.002 50.2298 23.2624 50.2034 21.5443C50.1928 20.8564 50.1754 19.9816 50.1618 19.0439C50.7837 18.324 51.4845 17.4142 52.1298 16.3492C52.833 15.1886 53.5866 13.63 53.9725 12.417C53.9725 12.417 54.6272 12.4226 55.326 12.377C55.5495 12.3625 55.6137 12.408 55.5724 12.5713C55.5225 12.7686 54.6896 15.9704 55.4497 18.1033C55.9701 19.5634 57.143 20.0332 57.8384 20.0332C58.6525 20.0332 59.4313 19.4205 59.8486 18.5107C59.8989 18.6121 59.9515 18.7102 60.0088 18.8009C61.1871 20.6614 63.465 20.2586 64.6212 18.681C64.8821 18.3251 65.0302 18.0174 65.0302 18.0174C65.2784 19.5614 66.4831 20.0384 67.1732 20.0384C67.892 20.0384 68.5742 19.7447 69.1277 18.4395C69.1509 19.0142 69.1873 19.4841 69.2448 19.6322C69.2798 19.7228 69.4841 19.8366 69.6327 19.8915C70.2902 20.1345 70.9609 20.0196 71.2091 19.9696C71.3809 19.9349 71.515 19.7975 71.5333 19.4426C71.5814 18.5108 71.5519 16.9452 71.8353 15.7817C72.3111 13.829 72.7549 13.0716 72.9655 12.6966C73.0833 12.4865 73.2163 12.4518 73.2211 12.6742C73.231 13.1241 73.2535 14.4453 73.4378 16.2204C73.5731 17.526 73.754 18.2976 73.893 18.5419C74.2896 19.2403 74.7794 19.2733 75.1783 19.2733C75.432 19.2733 75.9626 19.2034 75.9152 18.759C75.892 18.5424 75.9326 17.2036 76.4017 15.2798C76.708 14.0235 77.2187 12.8884 77.4029 12.4734C77.4708 12.3204 77.5024 12.441 77.5013 12.4645C77.4625 13.3297 77.3754 16.1595 77.7291 17.7072C78.2085 19.8039 79.5953 20.0385 80.0786 20.0385C81.1103 20.0385 81.9541 19.2564 82.2383 17.1984C82.3068 16.7031 82.2054 16.3207 81.9016 16.3207" fill="#212121"/>
</svg>
