<svg width="30" height="30" viewBox="0 0 30 30" fill="none" xmlns="http://www.w3.org/2000/svg">
<g clip-path="url(#clip0_177_789)">
<path d="M22.3093 12.351C22.3093 12.351 23.5226 11.4285 22.5991 10.5059C21.6755 9.58337 20.7777 10.7739 20.7777 10.7739L11.4939 20.0596C11.4939 20.0596 9.31955 22.8658 7.66629 21.1691C6.015 19.4703 8.77473 17.3405 8.77473 17.3405L20.9478 5.16841C20.9478 5.16841 23.7886 2.03888 26.4593 4.70763C29.1261 7.37738 25.9876 10.2241 25.9876 10.2241L12.3097 23.9021C12.3097 23.9021 7.93326 28.9578 3.88218 24.9057C-0.168913 20.8536 4.93623 16.5267 4.93623 16.5267L15.3205 6.13941C15.3205 6.13941 16.4834 5.16841 15.6122 4.29432C14.7372 3.42121 13.7681 4.58601 13.7681 4.58601L1.85218 16.502C1.85218 16.502 -2.64584 21.4351 2.37723 26.4571C7.4003 31.4822 12.3364 26.9842 12.3364 26.9842L28.7138 10.6048C28.7138 10.6048 31.9906 6.99076 28.0839 3.08206C24.1772 -0.826644 20.5621 2.45022 20.5621 2.45022L6.46985 16.5405C6.46985 16.5405 2.86075 19.4763 6.13564 22.7492C9.41052 26.026 12.2929 22.3635 12.2929 22.3635L22.3093 12.351Z" fill="var(--Color-SVG, #CACAD8)"/>
</g>
<defs>
<clipPath id="clip0_177_789">
<rect width="30" height="30" fill="var(--Color-SVG, #CACAD8)"/>
</clipPath>
</defs>
</svg>
