<svg width="16" height="11" viewBox="0 0 16 11" fill="none" xmlns="http://www.w3.org/2000/svg">
<path fill-rule="evenodd" clip-rule="evenodd" d="M8 2.64286C8 2.39071 8.054 1.92857 8.138 1.92857H0.5V3.35714H8.138C8.054 3.35714 8 2.895 8 2.64286ZM13.862 1.92857C13.5522 1.21429 12.728 0.5 11.75 0.5C10.5073 0.5 9.5 1.45929 9.5 2.64286C9.5 3.82643 10.5073 4.78571 11.75 4.78571C12.728 4.78571 13.5522 4.07143 13.862 3.35714H15.5V1.92857H13.862ZM8 8.35714C8 8.60929 7.946 8.84714 7.862 9.07143H15.5V7.64286H7.862C7.946 7.64286 8 8.105 8 8.35714ZM6.5 8.35714C6.5 9.54071 5.49275 10.5 4.25 10.5C3.272 10.5 2.44775 9.78571 2.138 9.07143H0.5V7.64286H2.138C2.44775 6.92857 3.272 6.21429 4.25 6.21429C5.49275 6.21429 6.5 7.17357 6.5 8.35714Z" fill="var(--Color-SVG, #FDFDFD)"/>
</svg>
