<svg width="15" height="16" viewBox="0 0 15 16" fill="none" xmlns="http://www.w3.org/2000/svg">
<path d="M7.50009 0.5C3.36452 0.5 0 3.86462 0 8.00036C0.000409936 12.1357 3.36493 15.5 7.50009 15.5C11.6356 15.5 15 12.1356 15 8.00027C15 3.86462 11.6356 0.5 7.50009 0.5ZM7.50009 1.86642C8.94552 1.86642 10.2755 2.36935 11.325 3.20902L2.70895 11.8248C1.86944 10.7754 1.36659 9.44553 1.36645 8.00032C1.36645 4.61807 4.11799 1.86642 7.50009 1.86642ZM7.50009 14.1336C6.0547 14.1336 4.72464 13.6306 3.67507 12.791L12.2912 4.17526C13.1307 5.2248 13.6336 6.55483 13.6336 8.00027C13.6335 11.3822 10.8821 14.1336 7.50009 14.1336Z" fill="var(--Color-SVG, #FDFDFD)"/>
</svg>
