<svg width="25" height="24" viewBox="0 0 25 24" fill="none" xmlns="http://www.w3.org/2000/svg">
<g id="icon" clip-path="url(#clip0_52_848)">
<g id="Group">
<path id="Vector" d="M12.1901 11.781C11.2228 11.7802 10.2776 11.4927 9.47375 10.9547C8.66994 10.4167 8.04367 9.65254 7.67412 8.7587C7.30458 7.86486 7.20835 6.88151 7.3976 5.93299C7.58686 4.98446 8.05309 4.11335 8.73737 3.42977C9.42165 2.74619 10.2932 2.28084 11.242 2.09256C12.1907 1.90428 13.1739 2.00151 14.0674 2.37197C14.9608 2.74243 15.7244 3.36948 16.2615 4.17384C16.7987 4.97821 17.0853 5.92377 17.0851 6.89099C17.0848 7.5335 16.958 8.16967 16.7118 8.76316C16.4657 9.35665 16.105 9.89584 15.6505 10.3499C15.1959 10.804 14.6563 11.1641 14.0626 11.4097C13.4689 11.6552 12.8326 11.7814 12.1901 11.781ZM12.1901 3.95599C11.6099 3.95619 11.0427 4.12841 10.5604 4.45088C10.0781 4.77335 9.70215 5.23158 9.48021 5.76766C9.25826 6.30374 9.20025 6.89359 9.31349 7.46263C9.42673 8.03168 9.70614 8.55438 10.1164 8.96464C10.5267 9.37491 11.0494 9.65433 11.6184 9.76757C12.1875 9.88081 12.7773 9.82279 13.3134 9.60085C13.8495 9.3789 14.3077 9.003 14.6302 8.52066C14.9526 8.03832 15.1249 7.4712 15.1251 6.89099C15.1219 6.11393 14.8115 5.36965 14.2617 4.82055C13.7118 4.27145 12.9671 3.9621 12.1901 3.95999V3.95599ZM17.3151 21.542H7.06506C6.47981 21.6073 5.88756 21.5231 5.34368 21.2973C4.7998 21.0715 4.32204 20.7115 3.95506 20.251C2.95506 18.764 3.82806 16.651 4.40506 15.263C4.48306 15.087 4.55206 14.921 4.60506 14.774C4.84301 14.1448 5.21854 13.5768 5.70419 13.1114C6.18984 12.646 6.77335 12.295 7.41206 12.084C7.82305 11.9541 8.25899 11.9236 8.68405 11.9951C9.10911 12.0665 9.51113 12.2379 9.85706 12.495C10.5521 12.945 11.3574 13.1954 12.1851 13.219C13.0136 13.2008 13.8204 12.9499 14.5131 12.495C14.859 12.2378 15.261 12.0664 15.6861 11.995C16.1111 11.9235 16.5471 11.954 16.9581 12.084C17.596 12.2964 18.1788 12.6479 18.6642 13.1132C19.1497 13.5784 19.5257 14.1457 19.7651 14.774C19.8237 14.9207 19.8921 15.0873 19.9701 15.274C20.5471 16.674 21.4181 18.774 20.4201 20.262C20.0532 20.7206 19.5761 21.0787 19.0332 21.3027C18.4904 21.5267 17.8996 21.6094 17.3161 21.543L17.3151 21.542ZM8.25806 13.913C8.15605 13.9127 8.05468 13.9292 7.95806 13.962C7.61211 14.0924 7.29795 14.295 7.03653 14.5565C6.77511 14.8179 6.57245 15.132 6.44206 15.478C6.38306 15.644 6.30506 15.82 6.22706 16.016C5.85506 16.906 5.18006 18.549 5.59106 19.175C5.77706 19.449 6.29106 19.596 7.06806 19.596H17.3161C18.0891 19.596 18.6161 19.449 18.7931 19.175C19.2041 18.559 18.5291 16.906 18.1571 16.016C18.0791 15.816 18.0011 15.644 17.9421 15.478C17.8135 15.1308 17.6115 14.8154 17.3498 14.5535C17.0882 14.2915 16.7731 14.089 16.4261 13.96C16.3055 13.9118 16.1745 13.8957 16.0459 13.9132C15.9172 13.9307 15.7953 13.9813 15.6921 14.06C14.6615 14.7699 13.4434 15.1579 12.1921 15.175C10.9384 15.1593 9.71763 14.7712 8.68506 14.06C8.56598 13.9596 8.41373 13.9072 8.25806 13.913Z" fill="var(--Color-SVG)"/>
</g>
</g>
<defs>
<clipPath id="clip0_52_848">
<rect width="24" height="24" fill="white" transform="translate(0.5)"/>
</clipPath>
</defs>
</svg>
