<svg width="25" height="25" viewBox="0 0 35 35" fill="none" xmlns="http://www.w3.org/2000/svg">
<g clip-path="url(#clip0_120_1089)">
<g clip-path="url(#clip1_120_1089)">
<path d="M33.6222 28.4227C32.5508 27.4675 31.6127 26.3725 30.8334 25.1671C29.9825 23.5033 29.4725 21.6862 29.3334 19.8227V14.3338C29.3407 11.4067 28.2789 8.57763 26.3475 6.37818C24.4161 4.17873 21.748 2.76028 18.8445 2.38932V0.955989C18.8445 0.562585 18.6882 0.185294 18.41 -0.0928854C18.1318 -0.371064 17.7545 -0.527344 17.3611 -0.527344C16.9677 -0.527344 16.5904 -0.371064 16.3123 -0.0928854C16.0341 0.185294 15.8778 0.562585 15.8778 0.955989V2.41155C13.0003 2.80924 10.3644 4.23627 8.45839 6.42833C6.55234 8.62039 5.50528 11.4289 5.51114 14.3338V19.8227C5.37198 21.6862 4.862 23.5033 4.01114 25.1671C3.24545 26.3697 2.32247 27.4646 1.26669 28.4227C1.14817 28.5268 1.05318 28.6549 0.988046 28.7986C0.922909 28.9423 0.889116 29.0982 0.888916 29.256V30.7671C0.888916 31.0618 1.00598 31.3444 1.21435 31.5528C1.42273 31.7611 1.70534 31.8782 2.00003 31.8782H32.8889C33.1836 31.8782 33.4662 31.7611 33.6746 31.5528C33.883 31.3444 34 31.0618 34 30.7671V29.256C33.9998 29.0982 33.966 28.9423 33.9009 28.7986C33.8358 28.6549 33.7408 28.5268 33.6222 28.4227ZM3.20003 29.656C4.23381 28.6573 5.14403 27.5382 5.91114 26.3227C6.98293 24.3132 7.60828 22.096 7.74447 19.8227V14.3338C7.70041 13.0316 7.91883 11.7339 8.38674 10.5178C8.85466 9.30183 9.56248 8.19242 10.4681 7.25566C11.3737 6.3189 12.4585 5.57395 13.658 5.06518C14.8575 4.55641 16.1471 4.29422 17.45 4.29422C18.753 4.29422 20.0426 4.55641 21.242 5.06518C22.4415 5.57395 23.5264 6.3189 24.432 7.25566C25.3376 8.19242 26.0454 9.30183 26.5133 10.5178C26.9812 11.7339 27.1996 13.0316 27.1556 14.3338V19.8227C27.2918 22.096 27.9171 24.3132 28.9889 26.3227C29.756 27.5382 30.6662 28.6573 31.7 29.656H3.20003Z" fill="var(--Color-SVG, #FDFDFD)"/>
<path d="M17.5 35.589C18.1999 35.5729 18.8716 35.3097 19.3962 34.8461C19.9208 34.3825 20.2646 33.7483 20.3667 33.0557H14.5222C14.6272 33.7671 14.987 34.4162 15.5348 34.8822C16.0825 35.3482 16.7809 35.5994 17.5 35.589Z" fill="var(--Color-SVG, #FDFDFD)"/>
</g>
</g>
<defs>
<clipPath id="clip0_120_1089">
<rect width="35" height="35" fill="white"/>
</clipPath>
<clipPath id="clip1_120_1089">
<rect width="40" height="40" fill="white" transform="translate(-2.5 -2.5)"/>
</clipPath>
</defs>
</svg>
