<svg width="20" height="20" viewBox="0 0 20 20" fill="none" xmlns="http://www.w3.org/2000/svg">
<path d="M2.5 8.33317C2.5 5.19047 2.5 3.61913 3.47631 2.64281C4.45262 1.6665 6.02397 1.6665 9.16667 1.6665H10.8333C13.976 1.6665 15.5474 1.6665 16.5237 2.64281C17.5 3.61913 17.5 5.19047 17.5 8.33317V11.6665C17.5 14.8092 17.5 16.3806 16.5237 17.3568C15.5474 18.3332 13.976 18.3332 10.8333 18.3332H9.16667C6.02397 18.3332 4.45262 18.3332 3.47631 17.3568C2.5 16.3806 2.5 14.8092 2.5 11.6665V8.33317Z" stroke="var(--Color-SVG, #FDFDFD)"/>
<path d="M6.66675 10H13.3334" stroke="var(--Color-SVG, #FDFDFD)" stroke-linecap="round"/>
<path d="M6.66675 6.6665H13.3334" stroke="var(--Color-SVG, #FDFDFD)" stroke-linecap="round"/>
<path d="M6.66675 13.3335H10.8334" stroke="var(--Color-SVG, #FDFDFD)" stroke-linecap="round"/>
</svg>
