<svg width="25" height="25" viewBox="0 0 21 21" fill="none" xmlns="http://www.w3.org/2000/svg">
<path d="M8.5 7.69995H9.3V14.1H8.5V7.69995Z" fill="#FDFDFD"/>
<path d="M10.1 7.69995H10.9V14.1H10.1V7.69995Z" fill="#FDFDFD"/>
<path d="M11.7 7.69995H12.5V14.1H11.7V7.69995Z" fill="#FDFDFD"/>
<path d="M5.30005 5.30005H15.7V6.10005H5.30005V5.30005Z" fill="#FDFDFD"/>
<path d="M12.5 5.29995H11.7V4.89995C11.7 4.65995 11.54 4.49995 11.3 4.49995H9.7C9.46 4.49995 9.3 4.65995 9.3 4.89995V5.29995H8.5V4.89995C8.5 4.21995 9.02 3.69995 9.7 3.69995H11.3C11.98 3.69995 12.5 4.21995 12.5 4.89995V5.29995Z" fill="#FDFDFD"/>
<path d="M12.9 16.4999H8.09998C7.45998 16.4999 6.89998 15.9799 6.81998 15.3399L6.09998 5.73991L6.89998 5.65991L7.61998 15.2599C7.61998 15.4999 7.85998 15.6999 8.09998 15.6999H12.9C13.14 15.6999 13.34 15.4999 13.38 15.2599L14.1 5.65991L14.9 5.73991L14.18 15.3399C14.1 15.9799 13.54 16.4999 12.9 16.4999Z" fill="#FDFDFD"/>
</svg>
