<svg width="30" height="32" viewBox="0 0 30 32" fill="none" xmlns="http://www.w3.org/2000/svg">
<path d="M15 29.125C7.7625 29.125 1.875 23.2375 1.875 16C1.875 8.7625 7.76344 2.875 15 2.875C22.2366 2.875 28.125 8.7625 28.125 16C28.125 23.2375 22.2375 29.125 15 29.125ZM15 4.75C8.79656 4.75 3.75 9.79656 3.75 16C3.75 22.2034 8.79656 27.25 15 27.25C21.2034 27.25 26.25 22.2034 26.25 16C26.25 9.79656 21.2034 4.75 15 4.75Z" fill="var(--Color-SVG, #CACAD8)"/>
<path d="M15.0003 23.7204C12.3875 23.7204 9.96408 22.5293 8.35252 20.4524C8.03377 20.0412 8.10502 19.4476 8.51283 19.1262C8.9197 18.8038 9.50939 18.8757 9.82908 19.2878C11.0825 20.9033 12.9678 21.8298 15.0003 21.8298C17.0544 21.8298 18.9519 20.8873 20.2053 19.2434C20.5213 18.8293 21.1091 18.7509 21.5197 19.0694C21.9303 19.388 22.0081 19.9817 21.6922 20.3948C20.0806 22.5085 17.6413 23.7204 15.0003 23.7204ZM10.7816 16.0945C10.0044 16.0945 9.37533 15.4602 9.37533 14.6766V12.7859C9.37533 12.0023 10.0044 11.368 10.7816 11.368C11.5588 11.368 12.1878 12.0023 12.1878 12.7859V14.6766C12.1878 15.4593 11.5578 16.0945 10.7816 16.0945ZM19.2191 16.0945C18.4428 16.0945 17.8128 15.4602 17.8128 14.6766V12.7859C17.8128 12.0023 18.4428 11.368 19.2191 11.368C19.9953 11.368 20.6253 12.0023 20.6253 12.7859V14.6766C20.6253 15.4593 19.9953 16.0945 19.2191 16.0945Z" fill="var(--Color-SVG, #CACAD8)"/>
</svg>