<svg width="15" height="16" viewBox="0 0 15 16" fill="none" xmlns="http://www.w3.org/2000/svg">
<path fill-rule="evenodd" clip-rule="evenodd" d="M11.7079 0.5C12.0695 0.5 12.4164 0.643666 12.6721 0.899402L14.6006 2.82787C14.8563 3.08361 15 3.43045 15 3.79211V13.4545C15 14.5843 14.0843 15.5 12.9545 15.5H2.04545C0.915784 15.5 0 14.5843 0 13.4545V2.54545C0 1.41578 0.915784 0.5 2.04545 0.5H11.7079ZM2.04545 1.86364C1.6689 1.86364 1.36364 2.1689 1.36364 2.54545V13.4545C1.36364 13.8311 1.6689 14.1364 2.04545 14.1364H2.72727V10.0455C2.72727 8.91575 3.64306 8 4.77273 8H10.2273C11.357 8 12.2727 8.91575 12.2727 10.0455V14.1364H12.9545C13.3311 14.1364 13.6364 13.8311 13.6364 13.4545V4.47393C13.6364 4.11227 13.4927 3.76542 13.237 3.50969L11.9903 2.26304C11.7346 2.0073 11.3877 1.86364 11.0261 1.86364H10.9091V3.22727C10.9091 4.35694 9.99334 5.27273 8.86364 5.27273H6.13636C5.00669 5.27273 4.09091 4.35694 4.09091 3.22727V1.86364H2.04545ZM10.9091 14.1364V10.0455C10.9091 9.66889 10.6038 9.36364 10.2273 9.36364H4.77273C4.39617 9.36364 4.09091 9.66889 4.09091 10.0455V14.1364H10.9091ZM5.45455 1.86364H9.54545V3.22727C9.54545 3.60383 9.2402 3.90909 8.86364 3.90909H6.13636C5.75981 3.90909 5.45455 3.60383 5.45455 3.22727V1.86364Z" fill="#FDFDFD"/>
</svg>
