<svg width="25" height="26" viewBox="0 0 25 26" fill="none" xmlns="http://www.w3.org/2000/svg">
<path d="M14.5837 5.70833C14.5837 6.85893 13.651 7.79167 12.5003 7.79167C11.3497 7.79167 10.417 6.85893 10.417 5.70833C10.417 4.55774 11.3497 3.625 12.5003 3.625C13.651 3.625 14.5837 4.55774 14.5837 5.70833Z" fill="var(--Color-SVG, #FDFDFD)"/>
<path d="M14.5837 13.0001C14.5837 14.1507 13.651 15.0834 12.5003 15.0834C11.3497 15.0834 10.417 14.1507 10.417 13.0001C10.417 11.8495 11.3497 10.9167 12.5003 10.9167C13.651 10.9167 14.5837 11.8495 14.5837 13.0001Z" fill="var(--Color-SVG, #FDFDFD)"/>
<path d="M12.5003 22.3749C13.651 22.3749 14.5837 21.4422 14.5837 20.2916C14.5837 19.141 13.651 18.2083 12.5003 18.2083C11.3497 18.2083 10.417 19.141 10.417 20.2916C10.417 21.4422 11.3497 22.3749 12.5003 22.3749Z" fill="var(--Color-SVG, #FDFDFD)"/>
</svg>
