<svg width="23" height="24" viewBox="0 0 23 24" fill="none" xmlns="http://www.w3.org/2000/svg"><path fill-rule="evenodd" clip-rule="evenodd" d="M20.4767 11.5358V22H15.9998L15.9998 17C15.9998 14.7909 14.2089 13 11.9998 13C9.79065 13 7.99979 14.7909 7.99979 17V22H1.86133L1.86133 11.5358L11.169 2L20.4767 11.5358Z" fill="var(--Color-SVG, #000)"></path><path d="M20.4767 22V22.5H20.9767V22H20.4767ZM20.4767 11.5358H20.9767V11.3322L20.8345 11.1865L20.4767 11.5358ZM15.9998 22H15.4998V22.5H15.9998V22ZM7.99979 22V22.5H8.49979V22H7.99979ZM1.86133 22H1.36133V22.5H1.86133V22ZM1.86133 11.5358L1.50352 11.1865L1.36133 11.3322V11.5358H1.86133ZM11.169 2L11.5268 1.65075L11.169 1.28418L10.8112 1.65075L11.169 2ZM20.9767 22V11.5358H19.9767V22H20.9767ZM15.9998 22.5H20.4767V21.5H15.9998V22.5ZM16.4998 22V17H15.4998L15.4998 22H16.4998ZM16.4998 17C16.4998 14.5147 14.4851 12.5 11.9998 12.5V13.5C13.9328 13.5 15.4998 15.067 15.4998 17H16.4998ZM11.9998 12.5C9.51451 12.5 7.49979 14.5147 7.49979 17H8.49979C8.49979 15.067 10.0668 13.5 11.9998 13.5V12.5ZM7.49979 17V22H8.49979V17H7.49979ZM1.86133 22.5H7.99979V21.5H1.86133V22.5ZM1.36133 11.5358L1.36133 22H2.36133L2.36133 11.5358H1.36133ZM10.8112 1.65075L1.50352 11.1865L2.21913 11.885L11.5268 2.34925L10.8112 1.65075ZM20.8345 11.1865L11.5268 1.65075L10.8112 2.34925L20.1189 11.885L20.8345 11.1865Z" fill="var(--Color-SVG, #000)"></path></svg>