<svg width="522" height="479" viewBox="0 0 522 479" fill="none" xmlns="http://www.w3.org/2000/svg">

    <rect width="521.667" height="479" fill="var(--Background-SVG, #F7F7FA)"/>

    <path
        fill-rule="evenodd"
        clip-rule="evenodd"
        d="M234.107 218.667H223.333V260.333H273.333V257.893L234.107 218.667ZM280.319 264.878C278.832 267.159 276.259 268.667 273.333 268.667H223.333C218.731 268.667 215 264.936 215 260.333V218.667C215 214.064 218.731 210.333 223.333 210.333H225.774L212.054 196.613L217.946 190.72L309.613 282.387L303.72 288.28L280.319 264.878ZM281.667 224.425L306.667 211.925V266.042L298.333 257.709V225.408L281.667 233.742V243.67L273.333 235.337V218.667H256.663L248.33 210.333H273.333C277.936 210.333 281.667 214.064 281.667 218.667V224.425Z"
        fill="var(--Color-SVG, #CACAD8)"
    />

</svg>
