<svg width="522" height="479" viewBox="0 0 522 479" fill="none" xmlns="http://www.w3.org/2000/svg">

    <rect width="521.667" height="479" fill="var(--Background-SVG, #F7F7FA)"/>

    <path
        d="M304.583 200.169L300.164 195.75L217.083 278.831L221.502 283.25L227.752 277H292.083C293.74 276.998 295.328 276.339 296.5 275.167C297.672 273.995 298.331 272.407 298.333 270.75V206.419L304.583 200.169ZM292.083 270.75H234.002L258.355 246.397L265.789 253.83C266.961 255.002 268.55 255.661 270.208 255.661C271.866 255.661 273.455 255.002 274.627 253.83L279.583 248.875L292.083 261.367V270.75ZM292.083 252.526L284.002 244.445C282.83 243.273 281.241 242.614 279.583 242.614C277.925 242.614 276.336 243.273 275.164 244.445L270.208 249.401L262.78 241.972L292.083 212.669V252.526Z"
        fill="var(--Color-SVG, #CACAD8)"
    />
    <path
        d="M229.583 258.25V248.875L245.208 233.261L249.5 237.552L253.924 233.127L249.627 228.83C248.455 227.658 246.866 227 245.208 227C243.55 227 241.961 227.658 240.789 228.83L229.583 240.036V208.25H279.583V202H229.583C227.926 202.002 226.337 202.661 225.165 203.832C223.994 205.004 223.335 206.593 223.333 208.25V258.25H229.583Z"
        fill="var(--Color-SVG, #CACAD8)"
    />

</svg>
